<?xml version="1.0" encoding="UTF-8"?>
<svg width="449px" height="405px" viewBox="0 0 449 405" version="1.1" xmlns="http://www.w3.org/2000/svg" xmlns:xlink="http://www.w3.org/1999/xlink">
    <!-- Generator: Sketch 48.2 (47327) - http://www.bohemiancoding.com/sketch -->
    <title>Car Imagery</title>
    <desc>Created with Sketch.</desc>
    <defs></defs>
    <g id="Desktop-HD" stroke="none" stroke-width="1" fill="none" fill-rule="evenodd" transform="translate(-842.000000, -208.000000)">
        <g id="Heading-Section">
            <g id="Car-Imagery" transform="translate(802.000000, 148.000000)">
                <g id="Icon-Section" transform="translate(43.000000, 215.000000)" opacity="0.295346467" stroke="#FFFFFF" stroke-linecap="square" stroke-width="4">
                    <g id="Speed-Lines">
                        <path d="M225.5,0.5 L0.5,232.5" id="Line"></path>
                        <path d="M309.623894,72.3755365 L140.376106,246.624464" id="Line-Copy"></path>
                        <path d="M252.75,53.251073 L140.25,169.748927" id="Line-Copy-2"></path>
                    </g>
                </g>
                <g id="Fast-Car" opacity="0.299818841" transform="translate(399.276224, 153.793346) rotate(133.000000) translate(-399.276224, -153.793346) translate(296.276224, 101.793346)" fill="#FFFFFF" fill-rule="nonzero">
                    <path d="M84.3083382,0.100259271 C84.2914738,0.100542707 84.237569,0.10880958 84.1949639,0.109707126 C83.780307,0.118871546 82.3064888,0.154348244 81.5023251,0.336455658 C80.6031633,0.54007584 79.7046061,0.817120031 78.9136127,1.29068906 C77.7304011,1.99911289 76.7326745,3.01085067 75.8147161,4.04001501 C75.0486415,4.89891011 74.4625343,5.90299512 73.8306665,6.86492381 C73.5766514,7.2516387 73.2487919,7.61316562 73.1126294,8.0553536 C73.0938282,8.11634423 73.0686969,8.17098118 73.0559423,8.23486285 C58.2904794,8.2765279 43.5252291,8.38139437 28.7643962,8.71670348 C19.9012656,9.01292682 11.206751,13.4653799 6.35408674,20.9894678 C4.27471578,23.4148504 2.94621125,26.2794827 2.34819601,29.3791635 C-1.10876298,38.7102813 0.368367654,48.8812142 0.0523671203,58.6202762 C-0.241181529,66.3866355 1.38988491,74.1973146 4.90856485,81.1061723 C8.99953163,87.5541872 15.1153401,93.3065282 22.9350712,94.4748878 C33.8901455,96.7524398 45.1733934,95.459189 56.2765509,95.835379 C61.8763138,95.8229551 67.474924,95.8267815 73.074838,95.8259312 C73.0844276,95.8659428 73.1007251,95.9006023 73.1126294,95.9393054 C73.2487919,96.3814934 73.5766514,96.7430298 73.8306665,97.1297352 C74.4625343,98.0916592 75.0486415,99.0957631 75.8147161,99.954644 C76.7326745,100.983813 77.7304011,101.995565 78.9136127,102.70397 C79.7046061,103.177553 80.6031633,103.454597 81.5023251,103.658203 C82.3064888,103.840297 83.780307,103.87583 84.1949639,103.884952 C84.3816583,103.923263 84.582274,103.890054 84.714596,103.790473 C84.8469179,103.690898 84.8886538,103.592744 84.9224488,103.36532 C84.9562249,103.137905 84.9221654,103.039666 84.7712831,102.467774 C84.620519,101.895881 84.2601683,100.899652 83.8737368,99.9924354 C83.4873054,99.085224 82.8458905,97.8399825 82.4187671,97.0541524 C82.1456627,96.5516871 81.9237042,96.171855 81.7101779,95.8259312 C88.9951737,95.8292379 96.2780058,95.8292379 103.563068,95.835379 C103.588671,95.8690134 103.615725,95.9051562 103.648098,95.9393054 C103.816157,96.1165614 104.060431,96.3513075 104.526749,96.5156246 C104.993071,96.6799417 105.016549,96.6338267 106.435216,96.7045817 C107.853882,96.7753414 111.44812,96.7503566 112.500748,96.685686 C113.553377,96.6210013 113.740822,96.6045006 114.25805,96.4022504 C114.67581,96.2388969 114.987637,96.160201 115.051669,95.8448269 C126.150887,95.8476612 137.256459,95.8349066 148.355374,95.7881398 C148.763403,95.9264753 148.855553,95.8908096 150.207154,95.9582012 C151.625693,96.0289609 155.229483,96.003976 156.282111,95.9393054 C157.150133,95.8859676 157.432633,95.8605717 157.793768,95.7409005 C166.963993,95.6835473 176.136363,95.5967782 185.305923,95.4669127 C191.718249,95.4820292 198.09052,91.4849675 200.242997,85.3199159 C205.740529,71.757524 205.641667,56.7208605 205.080299,42.3132776 C204.362262,32.9062085 203.148552,23.009202 198.051094,14.8861531 C193.483807,8.41653567 184.681939,8.22561813 177.511428,8.25375857 C170.758824,8.18312167 164.008402,8.15529774 157.255226,8.1403843 C157.025785,8.1099622 156.745826,8.08385778 156.282111,8.0553536 C155.229483,7.9907161 151.625693,7.96571235 150.207154,8.03645789 C149.276006,8.0828941 148.963301,8.0826579 148.714364,8.12148859 C140.066567,8.11912662 131.41844,8.14010086 122.770582,8.1403843 C120.201067,8.15427265 117.630556,8.16031927 115.061103,8.16872787 C115.007165,7.83539335 114.684913,7.75933812 114.25805,7.59240868 C113.740822,7.39014899 113.553377,7.37364359 112.500748,7.30897302 C111.44812,7.24430717 107.853882,7.21930342 106.435216,7.2900773 C105.016549,7.36082285 104.993071,7.31473621 104.526749,7.47903441 C104.060431,7.64335152 103.816157,7.87809766 103.648098,8.0553536 C103.606103,8.09966404 103.564409,8.14368633 103.534724,8.18762358 C96.2500402,8.19692971 88.9666506,8.20595242 81.6818344,8.21596714 C81.9043455,7.85803041 82.1330262,7.46622312 82.4187671,6.94050665 C82.8458905,6.15465765 83.4873054,4.90945864 83.8737368,4.00222359 C84.2601683,3.09501689 84.620519,2.09877832 84.7712831,1.52688545 C84.9221654,0.954964243 84.9562438,0.856782128 84.9224488,0.629339179 C84.8886727,0.401924573 84.8469179,0.303742459 84.714596,0.204185681 C84.6241422,0.136043024 84.5012398,0.104921788 84.3744732,0.100259271 C84.3529321,0.0993144854 84.3301155,0.0993144854 84.3083382,0.100259271 Z M109.14675,8.16872787 C109.41566,8.16589351 109.721255,8.16589351 110.015953,8.17817572 C109.596818,8.17912051 109.178533,8.17723094 108.759388,8.17817572 C108.892782,8.1729794 109.029493,8.17005057 109.14675,8.16872787 Z M185.49488,11.626643 C187.376713,11.5793754 189.498442,11.8614553 190.643975,12.4486064 C193.448373,13.8861071 195.130332,16.1005191 195.783609,19.2227188 C195.996786,20.2418306 196.504792,21.7225788 196.907889,22.5200204 C198.106997,24.8921974 199.210474,28.321802 199.109254,29.3508199 L199.014747,30.3050533 L198.079424,29.4264027 C197.565399,28.9444818 196.685855,27.5592042 196.133165,26.3464018 C192.933895,19.3260831 188.661924,15.2369662 182.150339,12.9493427 C181.583742,12.7502859 181.587974,12.7283338 182.121901,12.3352321 C182.716313,11.8977208 184.031152,11.6634093 185.4948,11.626643 L185.49488,11.626643 Z M84.2422032,12.2218579 C84.8510088,12.2180787 85.5471032,12.2204407 86.3207314,12.2218579 C91.4782449,12.2317781 100.06823,12.3454217 109.071167,12.5336371 L115.495704,12.6659071 L117.9994,16.596215 C119.374644,18.7536044 120.539348,20.724994 120.588113,20.9800199 C120.675576,21.4375937 120.65233,21.4366773 118.651288,21.4051734 C117.536016,21.3876004 114.628679,21.3045538 112.198417,21.2162163 C105.333029,20.9666795 94.7465604,19.8664532 88.0591368,18.7125346 L85.3853937,18.2590375 L84.5256389,16.9174421 C84.0522635,16.1827107 83.1716195,14.898185 82.5699328,14.0547418 C81.9682556,13.2112987 81.4421801,12.4332017 81.3983987,12.3257843 C81.3765269,12.2720968 82.4157957,12.233474 84.2422032,12.2218579 Z M23.9743354,12.4391586 C24.4653593,12.4391822 25.0227025,12.4363242 25.6560517,12.4391586 C32.4802184,12.4672659 33.6986138,12.9913337 31.0885682,14.7538831 C29.5806432,15.7721825 19.8725442,21.6689717 15.9436601,23.9560944 C12.603076,25.9007512 11.2871787,27.0208795 9.79310614,29.1902063 C9.19172368,30.0633866 8.27822187,30.9719632 7.75236935,31.2214953 C6.77575587,31.6849315 5.25268976,31.8207113 4.90856485,31.4765874 C4.80199304,31.3700156 4.71015988,30.5153862 4.71015988,29.5775684 C4.71015988,27.7562439 5.26346031,26.3951244 7.26108087,23.2475052 C8.90483766,20.6574607 12.102846,17.0283552 13.9974018,15.6041901 C14.9665931,14.8756329 16.8364182,13.8562896 18.1544583,13.3461527 C20.2363291,12.5403876 20.5371488,12.4390121 23.9743354,12.4391586 Z M126.719757,12.8265206 C127.498742,12.8246311 128.724634,12.8543918 130.621735,12.9021035 C146.544801,13.3028579 156.901559,13.6547811 157.028477,13.7902019 C157.241559,14.0170118 157.831559,17.6699968 157.831559,18.7692217 C157.831559,20.4818959 157.965341,20.4334993 152.058934,20.7438235 C148.106707,20.9514638 133.128577,21.4183768 129.563575,21.4429648 C129.216622,21.4453268 128.835562,20.7570175 127.362211,17.4748655 C126.382686,15.292751 125.512486,13.3406021 125.434848,13.1382999 C125.35107,12.9197568 125.421527,12.8295534 126.719757,12.8265206 Z M166.561378,15.1129017 C166.9051,15.1017532 167.330962,15.1263649 167.874615,15.1695888 C170.005324,15.3389936 175.060489,16.0559913 175.33845,16.2277486 C175.935252,16.5966543 172.863475,17.6865353 169.102865,18.4479946 C166.30382,19.014729 165.978483,19.0479382 165.285931,18.7692217 C164.64248,18.510341 164.515019,17.7322535 164.917451,16.5206321 C165.25951,15.4907167 165.530215,15.146366 166.561378,15.1129017 Z M53.7917649,16.8796506 C54.7010974,16.8796506 79.7793669,22.3938206 84.1288289,23.5498366 C87.0612118,24.3292186 92.4497631,26.1501037 96.0992619,27.5935188 C104.402982,30.8777256 108.650629,31.9962194 112.840871,31.9962194 C116.030406,31.9962194 116.214615,32.0809147 118.830812,34.8778154 L121.523436,37.7594113 L121.523436,52.0445688 L121.523436,66.3391742 L118.896932,69.1451872 L116.279891,71.9417525 L111.196944,72.2440839 C107.187941,72.4783056 104.9528,72.9945601 100.596441,74.6910784 C89.7407134,78.9186867 82.6717901,80.9802324 69.4941008,83.7893633 C62.1406553,85.3569231 55.5418762,86.7735865 54.831029,86.9354992 C53.7899368,87.172645 53.3250928,86.8076555 52.4312737,85.0459281 C51.0568753,82.3369633 48.0351724,72.9070777 47.1688182,68.6161073 C45.2581265,59.1526582 45.4081017,42.3245962 47.4711496,34.0275084 C49.3950542,26.2900218 52.864132,16.8796506 53.7917649,16.8796506 Z M188.518194,19.8557251 C190.121821,19.7771615 190.607667,21.162458 192.354023,24.437935 C197.103739,33.3465542 198.541901,41.0191529 198.098319,55.1434654 C197.750308,66.2246614 196.807789,70.4834098 192.96812,78.2907114 C189.622369,85.0938995 189.534604,85.1404208 184.597348,82.7878906 C182.359279,81.7215442 179.019121,80.2838499 177.180767,79.5945154 C175.342413,78.905181 173.836226,78.236202 173.836226,78.1112021 C173.836226,77.9862023 174.747878,76.0831585 175.858067,73.8785629 C179.342649,66.9591188 180.484918,61.4586151 180.449725,51.7611331 C180.414485,42.053882 179.389298,37.2324005 175.876963,30.257814 C174.715014,27.9504871 173.849165,25.994474 173.949601,25.9118005 C174.050064,25.829127 177.507526,24.2915216 181.630693,22.4916768 C185.353238,20.8667779 187.270926,19.9168338 188.518194,19.8557251 Z M5.5982583,72.2440839 C5.82888801,72.2239127 6.11434929,72.2636409 6.467461,72.3480103 C8.19586303,72.7609902 8.44832106,72.9602833 9.9064804,74.9650662 C11.6364545,77.3435639 12.622274,78.1307545 16.9167892,80.6148838 C23.2807447,84.2960754 31.8393609,89.6587396 32.146728,90.1572179 C32.8055978,91.225742 32.0215203,91.4044104 26.1378924,91.4704698 C21.2798589,91.5250123 20.3583812,91.4600299 19.0331069,90.9791813 C14.6022422,89.3714492 11.0756298,86.371859 7.75236935,81.3801601 C5.30653497,77.706404 4.727423,76.3631504 4.71960774,74.3604035 C4.71386344,72.8926744 4.90636539,72.3045454 5.5982583,72.2440839 Z M199.014747,73.7651886 L199.099792,74.6343913 C199.202344,75.6416791 197.980259,79.4625997 196.945681,81.3518166 C196.559391,82.0572454 196.047152,83.5587742 195.811938,84.6869095 C194.810555,89.4895143 191.10068,92.4688814 186.241246,92.3869118 C185.271183,92.370567 184.080905,92.2669665 183.595847,92.1507154 C183.110846,92.0344642 182.461074,91.7955422 182.150339,91.6216355 C181.6215,91.3256956 181.642484,91.2873703 182.452671,90.9602856 C186.225615,89.4370409 188.301271,88.1735934 190.294391,86.2080143 C192.673408,83.8618945 194.169646,81.685066 196.104808,77.7332879 C196.839893,76.2321512 197.788704,74.7210187 198.221127,74.3792992 L199.014747,73.7651886 Z M129.138408,82.5800378 L133.257673,82.627277 C138.258083,82.6837327 148.090442,83.0284991 153.409963,83.3264184 C156.579666,83.5039436 157.3585,83.6054324 157.567019,83.874394 C157.921352,84.3314009 157.884014,86.1362389 157.463107,88.3337818 L157.10406,90.1761136 L156.178199,90.3178314 C155.281063,90.4535168 144.569765,90.7715883 131.651566,91.0453163 C127.175885,91.1401491 125.321989,91.1153532 125.37819,90.9602856 C125.42198,90.8393153 126.285122,88.9045928 127.29609,86.6615113 L129.138408,82.5800378 Z M116.96957,82.6650685 C119.187322,82.6612893 120.625904,82.7497732 120.625904,82.957952 C120.625904,83.2272253 116.098582,90.5432006 115.609079,91.064212 C115.36788,91.3209386 110.104975,91.4589576 87.1804863,91.8011447 L81.181098,91.8956233 L82.0219572,90.7335371 C82.4874058,90.0954147 83.427576,88.7113606 84.1099332,87.662984 C84.8666214,86.5004112 85.5220097,85.7182091 85.7822037,85.6600387 C88.1102875,85.1395563 97.0038987,83.9540772 102.542699,83.4208969 C107.426055,82.9508141 113.273356,82.6715214 116.96957,82.6650685 Z M166.37242,85.1593023 C167.226988,85.1712066 168.440065,85.3795507 170.094876,85.7545172 C174.23981,86.693738 176.333271,87.6195759 174.951073,87.9086283 C173.618727,88.1872597 169.702478,88.667173 167.761241,88.7872788 L165.673279,88.9101009 L165.257574,88.2298554 C165.029767,87.8552998 164.784033,87.1869633 164.709598,86.746542 C164.52339,85.6442607 164.948137,85.1394524 166.37242,85.1593023 Z" id="Car"></path>
                </g>
                <text id="really,-really,-real" opacity="0.300554801" transform="translate(207.938232, 214.597866) rotate(-46.000000) translate(-207.938232, -214.597866) " font-family="Helvetica-Bold, Helvetica" font-size="24" font-weight="bold" letter-spacing="6.666667" fill="#FFFFFF">
                    <tspan x="-19.0474496" y="223.097866">really, really, really fast.</tspan>
                </text>
            </g>
        </g>
    </g>
</svg>